REM DIRINDEX 1\2\6,1\2\7,1\2\8,1\2\9,1\3\10,1\3\11,1\4\12,1\4\13,1\4\14,1\5\15,1\5\16,1\5\17
REM DIRNAME folder01,folder02,folder03,folder04,folder05,folder06,folder07,folder08,folder09,folder10,folder11,folder12,folder13,folder14,folder15,folder16,folder17
TITLE ""
FILE "1900_2_sec08_0716_0731.mp3" MP3
  TRACK 01 AUDIO
    TITLE "0:"
    INDEX 01 00:00:00
  TRACK 02 AUDIO
    TITLE "13:cjc020_3547"
    INDEX 01 00:00:17
  TRACK 03 AUDIO
    TITLE "0:"
    INDEX 01 00:01:50
  TRACK 04 AUDIO
    TITLE "14:cjc020_3548"
    INDEX 01 00:01:54
  TRACK 05 AUDIO
    TITLE "0:"
    INDEX 01 00:04:19
  TRACK 06 AUDIO
    TITLE "13:cjc020_3549"
    INDEX 01 00:04:74
  TRACK 07 AUDIO
    TITLE "0:"
    INDEX 01 00:06:10
  TRACK 08 AUDIO
    TITLE "14:cjc020_3550"
    INDEX 01 00:06:14
  TRACK 09 AUDIO
    TITLE "0:"
    INDEX 01 00:08:50
  TRACK 10 AUDIO
    TITLE "13:cjc020_3551"
    INDEX 01 00:09:30
  TRACK 11 AUDIO
    TITLE "0:"
    INDEX 01 00:10:35
  TRACK 12 AUDIO
    TITLE "14:cjc020_3552"
    INDEX 01 00:10:37
  TRACK 13 AUDIO
    TITLE "0:"
    INDEX 01 00:13:26
  TRACK 14 AUDIO
    TITLE "13:cjc020_3553"
    INDEX 01 00:14:06
  TRACK 15 AUDIO
    TITLE "0:"
    INDEX 01 00:15:23
  TRACK 16 AUDIO
    TITLE "14:cjc020_3554"
    INDEX 01 00:15:25
  TRACK 17 AUDIO
    TITLE "0:"
    INDEX 01 00:18:01
  TRACK 18 AUDIO
    TITLE "13:cjc020_3555"
    INDEX 01 00:18:58
  TRACK 19 AUDIO
    TITLE "0:"
    INDEX 01 00:19:63
  TRACK 20 AUDIO
    TITLE "14:cjc020_3556"
    INDEX 01 00:19:65
  TRACK 21 AUDIO
    TITLE "0:"
    INDEX 01 00:23:26
  TRACK 22 AUDIO
    TITLE "13:cjc020_3557"
    INDEX 01 00:24:04
  TRACK 23 AUDIO
    TITLE "0:"
    INDEX 01 00:25:07
  TRACK 24 AUDIO
    TITLE "14:cjc020_3558"
    INDEX 01 00:25:09
  TRACK 25 AUDIO
    TITLE "0:"
    INDEX 01 00:27:59
  TRACK 26 AUDIO
    TITLE "13:cjc020_3559"
    INDEX 01 00:28:45
  TRACK 27 AUDIO
    TITLE "0:"
    INDEX 01 00:29:38
  TRACK 28 AUDIO
    TITLE "14:cjc020_3560"
    INDEX 01 00:29:42
  TRACK 29 AUDIO
    TITLE "0:"
    INDEX 01 00:30:61
  TRACK 30 AUDIO
    TITLE "13:cjc020_3561"
    INDEX 01 00:31:41
  TRACK 31 AUDIO
    TITLE "0:"
    INDEX 01 00:32:48
  TRACK 32 AUDIO
    TITLE "14:cjc020_3562"
    INDEX 01 00:32:54
  TRACK 33 AUDIO
    TITLE "0:"
    INDEX 01 00:35:49
  TRACK 34 AUDIO
    TITLE "13:cjc020_3563"
    INDEX 01 00:36:29
  TRACK 35 AUDIO
    TITLE "0:"
    INDEX 01 00:37:38
  TRACK 36 AUDIO
    TITLE "14:cjc020_3564"
    INDEX 01 00:37:44
  TRACK 37 AUDIO
    TITLE "0:"
    INDEX 01 00:42:59
  TRACK 38 AUDIO
    TITLE "13:cjc020_3565"
    INDEX 01 00:43:37
  TRACK 39 AUDIO
    TITLE "0:"
    INDEX 01 00:44:67
  TRACK 40 AUDIO
    TITLE "14:cjc020_3566"
    INDEX 01 00:44:73
  TRACK 41 AUDIO
    TITLE "0:"
    INDEX 01 00:48:16
  TRACK 42 AUDIO
    TITLE "13:cjc020_3567"
    INDEX 01 00:48:71
  TRACK 43 AUDIO
    TITLE "0:"
    INDEX 01 00:50:17
  TRACK 44 AUDIO
    TITLE "14:cjc020_3568"
    INDEX 01 00:50:21
  TRACK 45 AUDIO
    TITLE "0:"
    INDEX 01 00:54:23
  TRACK 46 AUDIO
    TITLE "13:cjc020_3569"
    INDEX 01 00:55:01
  TRACK 47 AUDIO
    TITLE "0:"
    INDEX 01 00:56:10
  TRACK 48 AUDIO
    TITLE "14:cjc020_3570"
    INDEX 01 00:56:16
  TRACK 49 AUDIO
    TITLE "0:"
    INDEX 01 00:58:26
  TRACK 50 AUDIO
    TITLE "13:cjc020_3571"
    INDEX 01 00:59:06
  TRACK 51 AUDIO
    TITLE "0:"
    INDEX 01 01:00:17
  TRACK 52 AUDIO
    TITLE "14:cjc020_3572"
    INDEX 01 01:00:19
  TRACK 53 AUDIO
    TITLE "0:"
    INDEX 01 01:02:38
  TRACK 54 AUDIO
    TITLE "13:cjc020_3573"
    INDEX 01 01:03:18
  TRACK 55 AUDIO
    TITLE "0:"
    INDEX 01 01:04:37
  TRACK 56 AUDIO
    TITLE "14:cjc020_3574"
    INDEX 01 01:04:41
  TRACK 57 AUDIO
    TITLE "0:"
    INDEX 01 01:05:68
  TRACK 58 AUDIO
    TITLE "13:cjc020_3575"
    INDEX 01 01:06:45
  TRACK 59 AUDIO
    TITLE "0:"
    INDEX 01 01:07:68
  TRACK 60 AUDIO
    TITLE "14:cjc020_3576"
    INDEX 01 01:07:70
  TRACK 61 AUDIO
    TITLE "0:"
    INDEX 01 01:09:14
  TRACK 62 AUDIO
    TITLE "13:cjc020_3577"
    INDEX 01 01:09:69
  TRACK 63 AUDIO
    TITLE "0:"
    INDEX 01 01:10:65
  TRACK 64 AUDIO
    TITLE "14:cjc020_3578"
    INDEX 01 01:10:67
  TRACK 65 AUDIO
    TITLE "0:"
    INDEX 01 01:13:08
